{
    "asset" : {
        "generator" : "Khronos glTF Blender I/O v3.3.32",
        "version" : "2.0"
    },
    "scene" : 0,
    "scenes" : [
        {
            "name" : "Scene",
            "nodes" : [
                0
            ]
        }
    ],
    "nodes" : [
        {
            "mesh" : 0,
            "name" : "Arm2",
            "rotation" : [
                0,
                0,
                -1,
                2.8213003133714665e-07
            ]
        }
    ],
    "materials" : [
        {
            "doubleSided" : true,
            "name" : "STD Black",
            "pbrMetallicRoughness" : {
                "baseColorFactor" : [
                    0.0007739944849163294,
                    0.0007739944849163294,
                    0.0007739944849163294,
                    1
                ]
            }
        },
        {
            "doubleSided" : true,
            "name" : "STeel White",
            "pbrMetallicRoughness" : {
                "baseColorFactor" : [
                    0.8900054693222046,
                    0.8900054693222046,
                    0.8900054693222046,
                    1
                ],
                "metallicFactor" : 0.5,
                "roughnessFactor" : 0.20000000298023224
            }
        },
        {
            "doubleSided" : true,
            "name" : "STeel Gold",
            "pbrMetallicRoughness" : {
                "baseColorFactor" : [
                    1,
                    0.5799999833106995,
                    0.12999999523162842,
                    1
                ],
                "metallicFactor" : 0.800000011920929,
                "roughnessFactor" : 0.20000000298023224
            }
        },
        {
            "doubleSided" : true,
            "name" : "Material #36",
            "pbrMetallicRoughness" : {
                "baseColorFactor" : [
                    0,
                    0.8078431487083435,
                    0.5176470875740051,
                    1
                ],
                "metallicFactor" : 0,
                "roughnessFactor" : 0.5
            }
        }
    ],
    "meshes" : [
        {
            "name" : "??10.011",
            "primitives" : [
                {
                    "attributes" : {
                        "POSITION" : 0,
                        "NORMAL" : 1,
                        "TEXCOORD_0" : 2
                    },
                    "indices" : 3,
                    "material" : 0
                },
                {
                    "attributes" : {
                        "POSITION" : 4,
                        "NORMAL" : 5,
                        "TEXCOORD_0" : 6
                    },
                    "indices" : 7,
                    "material" : 1
                },
                {
                    "attributes" : {
                        "POSITION" : 8,
                        "NORMAL" : 9,
                        "TEXCOORD_0" : 10
                    },
                    "indices" : 11,
                    "material" : 2
                },
                {
                    "attributes" : {
                        "POSITION" : 12,
                        "NORMAL" : 13,
                        "TEXCOORD_0" : 14
                    },
                    "indices" : 15,
                    "material" : 3
                }
            ]
        }
    ],
    "accessors" : [
        {
            "bufferView" : 0,
            "componentType" : 5126,
            "count" : 6302,
            "max" : [
                0.5634049773216248,
                0.419765830039978,
                0.4512624442577362
            ],
            "min" : [
                -0.5547060966491699,
                -1.3134653568267822,
                -0.45126035809516907
            ],
            "type" : "VEC3"
        },
        {
            "bufferView" : 1,
            "componentType" : 5126,
            "count" : 6302,
            "type" : "VEC3"
        },
        {
            "bufferView" : 2,
            "componentType" : 5126,
            "count" : 6302,
            "type" : "VEC2"
        },
        {
            "bufferView" : 3,
            "componentType" : 5123,
            "count" : 19914,
            "type" : "SCALAR"
        },
        {
            "bufferView" : 4,
            "componentType" : 5126,
            "count" : 1394,
            "max" : [
                0.8837273120880127,
                0.39265793561935425,
                0.4048812985420227
            ],
            "min" : [
                -0.8837274312973022,
                -3.6145436763763428,
                -0.4048798680305481
            ],
            "type" : "VEC3"
        },
        {
            "bufferView" : 5,
            "componentType" : 5126,
            "count" : 1394,
            "type" : "VEC3"
        },
        {
            "bufferView" : 6,
            "componentType" : 5126,
            "count" : 1394,
            "type" : "VEC2"
        },
        {
            "bufferView" : 7,
            "componentType" : 5123,
            "count" : 3090,
            "type" : "SCALAR"
        },
        {
            "bufferView" : 8,
            "componentType" : 5126,
            "count" : 345,
            "max" : [
                0.7168545722961426,
                0.41162025928497314,
                0.41162046790122986
            ],
            "min" : [
                -0.7228878736495972,
                -0.5452752709388733,
                -0.4116204082965851
            ],
            "type" : "VEC3"
        },
        {
            "bufferView" : 9,
            "componentType" : 5126,
            "count" : 345,
            "type" : "VEC3"
        },
        {
            "bufferView" : 10,
            "componentType" : 5126,
            "count" : 345,
            "type" : "VEC2"
        },
        {
            "bufferView" : 11,
            "componentType" : 5123,
            "count" : 864,
            "type" : "SCALAR"
        },
        {
            "bufferView" : 12,
            "componentType" : 5126,
            "count" : 3398,
            "max" : [
                0.8188976645469666,
                0.5374017953872681,
                0.6929141879081726
            ],
            "min" : [
                -0.8188982009887695,
                -3.675197124481201,
                -0.4133879542350769
            ],
            "type" : "VEC3"
        },
        {
            "bufferView" : 13,
            "componentType" : 5126,
            "count" : 3398,
            "type" : "VEC3"
        },
        {
            "bufferView" : 14,
            "componentType" : 5126,
            "count" : 3398,
            "type" : "VEC2"
        },
        {
            "bufferView" : 15,
            "componentType" : 5123,
            "count" : 8796,
            "type" : "SCALAR"
        }
    ],
    "bufferViews" : [
        {
            "buffer" : 0,
            "byteLength" : 75624,
            "byteOffset" : 0,
            "target" : 34962
        },
        {
            "buffer" : 0,
            "byteLength" : 75624,
            "byteOffset" : 75624,
            "target" : 34962
        },
        {
            "buffer" : 0,
            "byteLength" : 50416,
            "byteOffset" : 151248,
            "target" : 34962
        },
        {
            "buffer" : 0,
            "byteLength" : 39828,
            "byteOffset" : 201664,
            "target" : 34963
        },
        {
            "buffer" : 0,
            "byteLength" : 16728,
            "byteOffset" : 241492,
            "target" : 34962
        },
        {
            "buffer" : 0,
            "byteLength" : 16728,
            "byteOffset" : 258220,
            "target" : 34962
        },
        {
            "buffer" : 0,
            "byteLength" : 11152,
            "byteOffset" : 274948,
            "target" : 34962
        },
        {
            "buffer" : 0,
            "byteLength" : 6180,
            "byteOffset" : 286100,
            "target" : 34963
        },
        {
            "buffer" : 0,
            "byteLength" : 4140,
            "byteOffset" : 292280,
            "target" : 34962
        },
        {
            "buffer" : 0,
            "byteLength" : 4140,
            "byteOffset" : 296420,
            "target" : 34962
        },
        {
            "buffer" : 0,
            "byteLength" : 2760,
            "byteOffset" : 300560,
            "target" : 34962
        },
        {
            "buffer" : 0,
            "byteLength" : 1728,
            "byteOffset" : 303320,
            "target" : 34963
        },
        {
            "buffer" : 0,
            "byteLength" : 40776,
            "byteOffset" : 305048,
            "target" : 34962
        },
        {
            "buffer" : 0,
            "byteLength" : 40776,
            "byteOffset" : 345824,
            "target" : 34962
        },
        {
            "buffer" : 0,
            "byteLength" : 27184,
            "byteOffset" : 386600,
            "target" : 34962
        },
        {
            "buffer" : 0,
            "byteLength" : 17592,
            "byteOffset" : 413784,
            "target" : 34963
        }
    ],
    "buffers" : [
        {
            "byteLength" : 431376,
            "uri" : "data:application/octet-stream;base64,"
        }
    ]
}
