{
    "asset" : {
        "generator" : "Khronos glTF Blender I/O v3.3.32",
        "version" : "2.0"
    },
    "scene" : 0,
    "scenes" : [
        {
            "name" : "Scene",
            "nodes" : [
                0
            ]
        }
    ],
    "nodes" : [
        {
            "mesh" : 0,
            "name" : "Arm4",
            "rotation" : [
                0,
                0,
                -1,
                4.5964805312631585e-14
            ]
        }
    ],
    "materials" : [
        {
            "doubleSided" : true,
            "name" : "STD Black",
            "pbrMetallicRoughness" : {
                "baseColorFactor" : [
                    0.0007739944849163294,
                    0.0007739944849163294,
                    0.0007739944849163294,
                    1
                ]
            }
        },
        {
            "doubleSided" : true,
            "name" : "STeel White",
            "pbrMetallicRoughness" : {
                "baseColorFactor" : [
                    0.8900054693222046,
                    0.8900054693222046,
                    0.8900054693222046,
                    1
                ],
                "metallicFactor" : 0.5,
                "roughnessFactor" : 0.20000000298023224
            }
        },
        {
            "doubleSided" : true,
            "name" : "STeel Gold",
            "pbrMetallicRoughness" : {
                "baseColorFactor" : [
                    1,
                    0.5799999833106995,
                    0.12999999523162842,
                    1
                ],
                "metallicFactor" : 0.800000011920929,
                "roughnessFactor" : 0.20000000298023224
            }
        },
        {
            "doubleSided" : true,
            "name" : "Material #29.002",
            "pbrMetallicRoughness" : {
                "baseColorFactor" : [
                    0,
                    0.8078431487083435,
                    0.5176470875740051,
                    1
                ],
                "metallicFactor" : 0,
                "roughnessFactor" : 0.5
            }
        },
        {
            "doubleSided" : true,
            "name" : "STeel Black",
            "pbrMetallicRoughness" : {
                "baseColorFactor" : [
                    0.20000000298023224,
                    0.20000000298023224,
                    0.20000000298023224,
                    1
                ],
                "metallicFactor" : 0.6000000238418579,
                "roughnessFactor" : 0
            }
        },
        {
            "doubleSided" : true,
            "name" : "Material #26.002",
            "pbrMetallicRoughness" : {
                "baseColorFactor" : [
                    1,
                    1,
                    1,
                    1
                ],
                "metallicFactor" : 0,
                "roughnessFactor" : 0.5
            }
        }
    ],
    "meshes" : [
        {
            "name" : "??10.009",
            "primitives" : [
                {
                    "attributes" : {
                        "POSITION" : 0,
                        "NORMAL" : 1,
                        "TEXCOORD_0" : 2
                    },
                    "indices" : 3,
                    "material" : 0
                },
                {
                    "attributes" : {
                        "POSITION" : 4,
                        "NORMAL" : 5,
                        "TEXCOORD_0" : 6
                    },
                    "indices" : 7,
                    "material" : 1
                },
                {
                    "attributes" : {
                        "POSITION" : 8,
                        "NORMAL" : 9,
                        "TEXCOORD_0" : 10
                    },
                    "indices" : 11,
                    "material" : 2
                },
                {
                    "attributes" : {
                        "POSITION" : 12,
                        "NORMAL" : 13,
                        "TEXCOORD_0" : 14
                    },
                    "indices" : 15,
                    "material" : 3
                },
                {
                    "attributes" : {
                        "POSITION" : 16,
                        "NORMAL" : 17,
                        "TEXCOORD_0" : 18
                    },
                    "indices" : 19,
                    "material" : 4
                },
                {
                    "attributes" : {
                        "POSITION" : 20,
                        "NORMAL" : 21,
                        "TEXCOORD_0" : 22
                    },
                    "indices" : 23,
                    "material" : 5
                }
            ]
        }
    ],
    "accessors" : [
        {
            "bufferView" : 0,
            "componentType" : 5126,
            "count" : 12616,
            "max" : [
                0.5634049773216248,
                0.419765830039978,
                0.5044103264808655
            ],
            "min" : [
                -0.5547060966491699,
                -2.9059221744537354,
                -1.2288215160369873
            ],
            "type" : "VEC3"
        },
        {
            "bufferView" : 1,
            "componentType" : 5126,
            "count" : 12616,
            "type" : "VEC3"
        },
        {
            "bufferView" : 2,
            "componentType" : 5126,
            "count" : 12616,
            "type" : "VEC2"
        },
        {
            "bufferView" : 3,
            "componentType" : 5123,
            "count" : 39828,
            "type" : "SCALAR"
        },
        {
            "bufferView" : 4,
            "componentType" : 5126,
            "count" : 3052,
            "max" : [
                0.8188982605934143,
                0.39265793561935425,
                2.543306350708008
            ],
            "min" : [
                -0.8188982605934143,
                -3.170114517211914,
                -1.2017138004302979
            ],
            "type" : "VEC3"
        },
        {
            "bufferView" : 5,
            "componentType" : 5126,
            "count" : 3052,
            "type" : "VEC3"
        },
        {
            "bufferView" : 6,
            "componentType" : 5126,
            "count" : 3052,
            "type" : "VEC2"
        },
        {
            "bufferView" : 7,
            "componentType" : 5123,
            "count" : 7230,
            "type" : "SCALAR"
        },
        {
            "bufferView" : 8,
            "componentType" : 5126,
            "count" : 834,
            "max" : [
                0.7168545722961426,
                0.41162025928497314,
                2.4320645332336426
            ],
            "min" : [
                -0.7228878736495972,
                -3.0741043090820312,
                -0.46063128113746643
            ],
            "type" : "VEC3"
        },
        {
            "bufferView" : 9,
            "componentType" : 5126,
            "count" : 834,
            "type" : "VEC3"
        },
        {
            "bufferView" : 10,
            "componentType" : 5126,
            "count" : 834,
            "type" : "VEC2"
        },
        {
            "bufferView" : 11,
            "componentType" : 5123,
            "count" : 1968,
            "type" : "SCALAR"
        },
        {
            "bufferView" : 12,
            "componentType" : 5126,
            "count" : 4106,
            "max" : [
                0.6161417365074158,
                0.5374008417129517,
                0.6929141879081726
            ],
            "min" : [
                -0.5649611949920654,
                -2.927166700363159,
                -1.2755922079086304
            ],
            "type" : "VEC3"
        },
        {
            "bufferView" : 13,
            "componentType" : 5126,
            "count" : 4106,
            "type" : "VEC3"
        },
        {
            "bufferView" : 14,
            "componentType" : 5126,
            "count" : 4106,
            "type" : "VEC2"
        },
        {
            "bufferView" : 15,
            "componentType" : 5123,
            "count" : 10668,
            "type" : "SCALAR"
        },
        {
            "bufferView" : 16,
            "componentType" : 5126,
            "count" : 665,
            "max" : [
                0.5236005187034607,
                -1.8877973556518555,
                2.2736005783081055
            ],
            "min" : [
                -0.47242191433906555,
                -2.7834670543670654,
                1.513798713684082
            ],
            "type" : "VEC3"
        },
        {
            "bufferView" : 17,
            "componentType" : 5126,
            "count" : 665,
            "type" : "VEC3"
        },
        {
            "bufferView" : 18,
            "componentType" : 5126,
            "count" : 665,
            "type" : "VEC2"
        },
        {
            "bufferView" : 19,
            "componentType" : 5123,
            "count" : 1770,
            "type" : "SCALAR"
        },
        {
            "bufferView" : 20,
            "componentType" : 5126,
            "count" : 120,
            "max" : [
                0.4980300962924957,
                -1.5885850191116333,
                2.3661410808563232
            ],
            "min" : [
                0.10432913154363632,
                -1.8248056173324585,
                2.1791329383850098
            ],
            "type" : "VEC3"
        },
        {
            "bufferView" : 21,
            "componentType" : 5126,
            "count" : 120,
            "type" : "VEC3"
        },
        {
            "bufferView" : 22,
            "componentType" : 5126,
            "count" : 120,
            "type" : "VEC2"
        },
        {
            "bufferView" : 23,
            "componentType" : 5123,
            "count" : 228,
            "type" : "SCALAR"
        }
    ],
    "bufferViews" : [
        {
            "buffer" : 0,
            "byteLength" : 151392,
            "byteOffset" : 0,
            "target" : 34962
        },
        {
            "buffer" : 0,
            "byteLength" : 151392,
            "byteOffset" : 151392,
            "target" : 34962
        },
        {
            "buffer" : 0,
            "byteLength" : 100928,
            "byteOffset" : 302784,
            "target" : 34962
        },
        {
            "buffer" : 0,
            "byteLength" : 79656,
            "byteOffset" : 403712,
            "target" : 34963
        },
        {
            "buffer" : 0,
            "byteLength" : 36624,
            "byteOffset" : 483368,
            "target" : 34962
        },
        {
            "buffer" : 0,
            "byteLength" : 36624,
            "byteOffset" : 519992,
            "target" : 34962
        },
        {
            "buffer" : 0,
            "byteLength" : 24416,
            "byteOffset" : 556616,
            "target" : 34962
        },
        {
            "buffer" : 0,
            "byteLength" : 14460,
            "byteOffset" : 581032,
            "target" : 34963
        },
        {
            "buffer" : 0,
            "byteLength" : 10008,
            "byteOffset" : 595492,
            "target" : 34962
        },
        {
            "buffer" : 0,
            "byteLength" : 10008,
            "byteOffset" : 605500,
            "target" : 34962
        },
        {
            "buffer" : 0,
            "byteLength" : 6672,
            "byteOffset" : 615508,
            "target" : 34962
        },
        {
            "buffer" : 0,
            "byteLength" : 3936,
            "byteOffset" : 622180,
            "target" : 34963
        },
        {
            "buffer" : 0,
            "byteLength" : 49272,
            "byteOffset" : 626116,
            "target" : 34962
        },
        {
            "buffer" : 0,
            "byteLength" : 49272,
            "byteOffset" : 675388,
            "target" : 34962
        },
        {
            "buffer" : 0,
            "byteLength" : 32848,
            "byteOffset" : 724660,
            "target" : 34962
        },
        {
            "buffer" : 0,
            "byteLength" : 21336,
            "byteOffset" : 757508,
            "target" : 34963
        },
        {
            "buffer" : 0,
            "byteLength" : 7980,
            "byteOffset" : 778844,
            "target" : 34962
        },
        {
            "buffer" : 0,
            "byteLength" : 7980,
            "byteOffset" : 786824,
            "target" : 34962
        },
        {
            "buffer" : 0,
            "byteLength" : 5320,
            "byteOffset" : 794804,
            "target" : 34962
        },
        {
            "buffer" : 0,
            "byteLength" : 3540,
            "byteOffset" : 800124,
            "target" : 34963
        },
        {
            "buffer" : 0,
            "byteLength" : 1440,
            "byteOffset" : 803664,
            "target" : 34962
        },
        {
            "buffer" : 0,
            "byteLength" : 1440,
            "byteOffset" : 805104,
            "target" : 34962
        },
        {
            "buffer" : 0,
            "byteLength" : 960,
            "byteOffset" : 806544,
            "target" : 34962
        },
        {
            "buffer" : 0,
            "byteLength" : 456,
            "byteOffset" : 807504,
            "target" : 34963
        }
    ],
    "buffers" : [
        {
            "byteLength" : 807960,
            "uri" : "data:application/octet-stream;base64,"
        }
    ]
}
