{
  "accessors": [
    {
      "bufferView": 2,
      "componentType": 5126,
      "count": 360,
      "max": [
        553.776611328125,
        865.5064697265625,
        812.3228759765625
      ],
      "min": [
        -553.776611328125,
        525.5797729492188,
        -553.776611328125
      ],
      "type": "VEC3"
    },
    {
      "bufferView": 2,
      "byteOffset": 4320,
      "componentType": 5126,
      "count": 360,
      "max": [
        0.5907565355300903,
        0.9977954030036926,
        0.5907571315765381
      ],
      "min": [
        -0.5907565355300903,
        0.806849479675293,
        -0.5907571315765381
      ],
      "type": "VEC3"
    },
    {
      "bufferView": 3,
      "componentType": 5126,
      "count": 360,
      "max": [
        1.0,
        0.18091027438640594,
        1.0,
        1.0
      ],
      "min": [
        -1.0,
        -0.18090146780014038,
        -1.0,
        1.0
      ],
      "type": "VEC4"
    },
    {
      "bufferView": 3,
      "byteOffset": 5760,
      "componentType": 5126,
      "count": 360,
      "max": [
        0.9960784316062927,
        0.9960784316062927,
        0.9960784316062927,
        1.0
      ],
      "min": [
        0.9098039269447327,
        0.9098039269447327,
        0.9098039269447327,
        1.0
      ],
      "type": "VEC4"
    },
    {
      "bufferView": 1,
      "componentType": 5126,
      "count": 360,
      "max": [
        3.07936429977417,
        2.2602696418762207
      ],
      "min": [
        -2.0083870887756348,
        -1.9802584648132324
      ],
      "type": "VEC2"
    },
    {
      "bufferView": 0,
      "componentType": 5125,
      "count": 1236,
      "type": "SCALAR"
    },
    {
      "bufferView": 2,
      "byteOffset": 8640,
      "componentType": 5126,
      "count": 1360,
      "max": [
        31.3060302734375,
        958.4759521484375,
        31.3060302734375
      ],
      "min": [
        -31.3060302734375,
        865.5064697265625,
        -31.3060302734375
      ],
      "type": "VEC3"
    },
    {
      "bufferView": 2,
      "byteOffset": 24960,
      "componentType": 5126,
      "count": 1360,
      "max": [
        1.0,
        1.0,
        1.0
      ],
      "min": [
        -1.0,
        -1.0,
        -1.0
      ],
      "type": "VEC3"
    },
    {
      "bufferView": 3,
      "byteOffset": 11520,
      "componentType": 5126,
      "count": 1360,
      "max": [
        1.0,
        1.0,
        1.0,
        1.0
      ],
      "min": [
        0.5058823823928833,
        0.5058823823928833,
        0.5058823823928833,
        1.0
      ],
      "type": "VEC4"
    },
    {
      "bufferView": 1,
      "byteOffset": 2880,
      "componentType": 5126,
      "count": 1360,
      "max": [
        10.06391429901123,
        10.700043678283691
      ],
      "min": [
        -7.145695686340332,
        9.979643821716309
      ],
      "type": "VEC2"
    },
    {
      "bufferView": 0,
      "byteOffset": 4944,
      "componentType": 5125,
      "count": 5544,
      "type": "SCALAR"
    },
    {
      "bufferView": 2,
      "byteOffset": 41280,
      "componentType": 5126,
      "count": 134,
      "max": [
        324.8983154296875,
        546.3743286132813,
        324.8983154296875
      ],
      "min": [
        -324.8983154296875,
        168.09375,
        -324.8983154296875
      ],
      "type": "VEC3"
    },
    {
      "bufferView": 2,
      "byteOffset": 42888,
      "componentType": 5126,
      "count": 134,
      "max": [
        1.0,
        1.0,
        1.0
      ],
      "min": [
        -1.0,
        -1.0,
        -1.0
      ],
      "type": "VEC3"
    },
    {
      "bufferView": 3,
      "byteOffset": 33280,
      "componentType": 5126,
      "count": 134,
      "max": [
        1.0,
        1.0,
        1.0,
        1.0
      ],
      "min": [
        -1.0,
        -1.0,
        -1.0,
        1.0
      ],
      "type": "VEC4"
    },
    {
      "bufferView": 3,
      "byteOffset": 35424,
      "componentType": 5126,
      "count": 134,
      "max": [
        0.0,
        0.0,
        0.0,
        0.0
      ],
      "min": [
        0.0,
        0.0,
        0.0,
        0.0
      ],
      "type": "VEC4"
    },
    {
      "bufferView": 1,
      "byteOffset": 13760,
      "componentType": 5126,
      "count": 134,
      "max": [
        15.899616241455078,
        17.027942657470703
      ],
      "min": [
        -6.199618816375732,
        -24.804676055908203
      ],
      "type": "VEC2"
    },
    {
      "bufferView": 0,
      "byteOffset": 27120,
      "componentType": 5125,
      "count": 216,
      "type": "SCALAR"
    },
    {
      "bufferView": 2,
      "byteOffset": 44496,
      "componentType": 5126,
      "count": 1220,
      "max": [
        611.5888061523438,
        238.1287384033203,
        1169.567626953125
      ],
      "min": [
        -611.5888061523438,
        -52.088600158691406,
        -611.5888061523438
      ],
      "type": "VEC3"
    },
    {
      "bufferView": 2,
      "byteOffset": 59136,
      "componentType": 5126,
      "count": 1220,
      "max": [
        1.0,
        1.0,
        1.0
      ],
      "min": [
        -1.0,
        -1.0,
        -1.0
      ],
      "type": "VEC3"
    },
    {
      "bufferView": 3,
      "byteOffset": 37568,
      "componentType": 5126,
      "count": 1220,
      "max": [
        1.0,
        1.0,
        1.0,
        1.0
      ],
      "min": [
        -1.0,
        -1.0,
        -1.0,
        1.0
      ],
      "type": "VEC4"
    },
    {
      "bufferView": 3,
      "byteOffset": 57088,
      "componentType": 5126,
      "count": 1220,
      "max": [
        1.0,
        1.0,
        1.0,
        1.0
      ],
      "min": [
        0.5058823823928833,
        0.5058823823928833,
        0.5058823823928833,
        1.0
      ],
      "type": "VEC4"
    },
    {
      "bufferView": 1,
      "byteOffset": 14832,
      "componentType": 5126,
      "count": 1220,
      "max": [
        12.998786926269531,
        1.1925780773162842
      ],
      "min": [
        -8.832731246948242,
        -2.4558560848236084
      ],
      "type": "VEC2"
    },
    {
      "bufferView": 0,
      "byteOffset": 27984,
      "componentType": 5125,
      "count": 1992,
      "type": "SCALAR"
    },
    {
      "bufferView": 2,
      "byteOffset": 73776,
      "componentType": 5126,
      "count": 148,
      "max": [
        488.09136962890625,
        275.4630432128906,
        488.09136962890625
      ],
      "min": [
        -488.09136962890625,
        -51.876773834228516,
        -488.09136962890625
      ],
      "type": "VEC3"
    },
    {
      "bufferView": 2,
      "byteOffset": 75552,
      "componentType": 5126,
      "count": 148,
      "max": [
        1.0,
        1.0,
        1.0
      ],
      "min": [
        -1.0,
        -1.0,
        -1.0
      ],
      "type": "VEC3"
    },
    {
      "bufferView": 3,
      "byteOffset": 76608,
      "componentType": 5126,
      "count": 148,
      "max": [
        1.0,
        1.0,
        1.0,
        1.0
      ],
      "min": [
        -1.0,
        -1.0,
        -1.0,
        1.0
      ],
      "type": "VEC4"
    },
    {
      "bufferView": 3,
      "byteOffset": 78976,
      "componentType": 5126,
      "count": 148,
      "max": [
        1.0,
        1.0,
        1.0,
        1.0
      ],
      "min": [
        0.5058823823928833,
        0.5058823823928833,
        0.5058823823928833,
        1.0
      ],
      "type": "VEC4"
    },
    {
      "bufferView": 1,
      "byteOffset": 24592,
      "componentType": 5126,
      "count": 148,
      "max": [
        9.18868637084961,
        4.068758487701416
      ],
      "min": [
        -6.96545934677124,
        -3.585583209991455
      ],
      "type": "VEC2"
    },
    {
      "bufferView": 0,
      "byteOffset": 35952,
      "componentType": 5125,
      "count": 246,
      "type": "SCALAR"
    },
    {
      "bufferView": 2,
      "byteOffset": 77328,
      "componentType": 5126,
      "count": 39244,
      "max": [
        541.0470581054688,
        865.5064697265625,
        790.33203125
      ],
      "min": [
        -541.0470581054688,
        -52.08855438232422,
        -541.0470581054688
      ],
      "type": "VEC3"
    },
    {
      "bufferView": 2,
      "byteOffset": 548256,
      "componentType": 5126,
      "count": 39244,
      "max": [
        1.0,
        1.0,
        1.0
      ],
      "min": [
        -1.0,
        -1.0,
        -1.0
      ],
      "type": "VEC3"
    },
    {
      "bufferView": 3,
      "byteOffset": 81344,
      "componentType": 5126,
      "count": 39244,
      "max": [
        1.0,
        1.0,
        1.0,
        1.0
      ],
      "min": [
        -1.0,
        -1.0,
        -1.0,
        1.0
      ],
      "type": "VEC4"
    },
    {
      "bufferView": 3,
      "byteOffset": 709248,
      "componentType": 5126,
      "count": 39244,
      "max": [
        0.27843138575553894,
        0.12941177189350128,
        0.08627451211214066,
        1.0
      ],
      "min": [
        0.07450980693101883,
        0.0235294122248888,
        0.007843137718737125,
        1.0
      ],
      "type": "VEC4"
    },
    {
      "bufferView": 1,
      "byteOffset": 25776,
      "componentType": 5126,
      "count": 39244,
      "max": [
        10.647798538208008,
        10.72585391998291
      ],
      "min": [
        -9.655073165893555,
        -9.703645706176758
      ],
      "type": "VEC2"
    },
    {
      "bufferView": 0,
      "byteOffset": 36936,
      "componentType": 5125,
      "count": 96624,
      "type": "SCALAR"
    },
    {
      "bufferView": 2,
      "byteOffset": 1019184,
      "componentType": 5126,
      "count": 4585,
      "max": [
        553.776611328125,
        605.6069946289063,
        812.3228759765625
      ],
      "min": [
        -553.776611328125,
        154.37179565429688,
        -553.776611328125
      ],
      "type": "VEC3"
    },
    {
      "bufferView": 2,
      "byteOffset": 1074204,
      "componentType": 5126,
      "count": 4585,
      "max": [
        1.0,
        1.0,
        1.0
      ],
      "min": [
        -1.0,
        -1.0,
        -1.0
      ],
      "type": "VEC3"
    },
    {
      "bufferView": 3,
      "byteOffset": 1337152,
      "componentType": 5126,
      "count": 4585,
      "max": [
        1.0,
        1.0,
        1.0,
        1.0
      ],
      "min": [
        -1.0,
        -1.0,
        -1.0,
        -1.0
      ],
      "type": "VEC4"
    },
    {
      "bufferView": 3,
      "byteOffset": 1410512,
      "componentType": 5126,
      "count": 4585,
      "max": [
        1.0,
        1.0,
        1.0,
        1.0
      ],
      "min": [
        0.5058823823928833,
        0.5058823823928833,
        0.5058823823928833,
        1.0
      ],
      "type": "VEC4"
    },
    {
      "bufferView": 1,
      "byteOffset": 339728,
      "componentType": 5126,
      "count": 4585,
      "max": [
        10.646496772766113,
        9.811723709106445
      ],
      "min": [
        -9.655072212219238,
        -9.712190628051758
      ],
      "type": "VEC2"
    },
    {
      "bufferView": 0,
      "byteOffset": 423432,
      "componentType": 5125,
      "count": 9597,
      "type": "SCALAR"
    }
  ],
  "asset": {
    "extras": {
      "author": "studio lab (https://sketchfab.com/leonlabyk)",
      "license": "SKETCHFAB Standard (https://sketchfab.com/licenses)",
      "source": "https://sketchfab.com/3d-models/asian-house-2e53bec7490646f09f74f060b1063a72",
      "title": "Asian House"
    },
    "generator": "Sketchfab-12.63.0",
    "version": "2.0"
  },
  "bufferViews": [
    {
      "buffer": 0,
      "byteLength": 461820,
      "name": "floatBufferViews",
      "target": 34963
    },
    {
      "buffer": 0,
      "byteLength": 376408,
      "byteOffset": 461820,
      "byteStride": 8,
      "name": "floatBufferViews",
      "target": 34962
    },
    {
      "buffer": 0,
      "byteLength": 1129224,
      "byteOffset": 838228,
      "byteStride": 12,
      "name": "floatBufferViews",
      "target": 34962
    },
    {
      "buffer": 0,
      "byteLength": 1483872,
      "byteOffset": 1967452,
      "byteStride": 16,
      "name": "floatBufferViews",
      "target": 34962
    }
  ],
  "buffers": [
    {
      "byteLength": 3451324,
      "uri": "scene.bin"
    }
  ],
  "extensionsRequired": [
    "KHR_materials_pbrSpecularGlossiness"
  ],
  "extensionsUsed": [
    "KHR_materials_pbrSpecularGlossiness"
  ],
  "images": [
    {
      "uri": "textures/CereamicRoofingShader_diffuse.png"
    },
    {
      "uri": "textures/CereamicRoofingShader_specularGlossiness.png"
    },
    {
      "uri": "textures/CereamicRoofingShader_normal.png"
    },
    {
      "uri": "textures/FabricShader_diffuse.png"
    },
    {
      "uri": "textures/FabricShader_normal.png"
    },
    {
      "uri": "textures/ConcreteShader_diffuse.png"
    },
    {
      "uri": "textures/ConcreteShader_specularGlossiness.png"
    },
    {
      "uri": "textures/ConcreteShader_normal.png"
    },
    {
      "uri": "textures/WoodPlanksShader_diffuse.png"
    },
    {
      "uri": "textures/WoodPlanksShader_specularGlossiness.png"
    },
    {
      "uri": "textures/WoodPlanksShader_normal.png"
    },
    {
      "uri": "textures/BrownWoodShader_diffuse.png"
    },
    {
      "uri": "textures/BrownWoodShader_specularGlossiness.png"
    },
    {
      "uri": "textures/BrownWoodShader_normal.png"
    },
    {
      "uri": "textures/WhiteWoodShader_diffuse.png"
    },
    {
      "uri": "textures/WhiteWoodShader_specularGlossiness.png"
    },
    {
      "uri": "textures/WhiteWoodShader_normal.png"
    }
  ],
  "materials": [
    {
      "doubleSided": true,
      "extensions": {
        "KHR_materials_pbrSpecularGlossiness": {
          "diffuseFactor": [
            1.0,
            1.0,
            1.0,
            1.0
          ],
          "diffuseTexture": {
            "index": 0
          },
          "glossinessFactor": 1.0,
          "specularFactor": [
            1.0,
            1.0,
            1.0
          ],
          "specularGlossinessTexture": {
            "index": 1
          }
        }
      },
      "name": "CereamicRoofingShader",
      "normalTexture": {
        "index": 2
      }
    },
    {
      "doubleSided": true,
      "extensions": {
        "KHR_materials_pbrSpecularGlossiness": {
          "diffuseFactor": [
            0.100542672538446,
            0.08426260408143454,
            0.025379792238149682,
            1.0
          ],
          "glossinessFactor": 0.763910061,
          "specularFactor": [
            0.6671627797,
            0.3444182355,
            0.0
          ]
        }
      },
      "name": "GoldShader"
    },
    {
      "doubleSided": true,
      "extensions": {
        "KHR_materials_pbrSpecularGlossiness": {
          "diffuseFactor": [
            1.0,
            1.0,
            1.0,
            1.0
          ],
          "diffuseTexture": {
            "index": 3
          },
          "glossinessFactor": 0.1358612805,
          "specularFactor": [
            0.1724466463,
            0.1724466463,
            0.1724466463
          ]
        }
      },
      "name": "FabricShader",
      "normalTexture": {
        "index": 4
      }
    },
    {
      "doubleSided": true,
      "extensions": {
        "KHR_materials_pbrSpecularGlossiness": {
          "diffuseFactor": [
            1.0,
            1.0,
            1.0,
            1.0
          ],
          "diffuseTexture": {
            "index": 5
          },
          "glossinessFactor": 1.0,
          "specularFactor": [
            1.0,
            1.0,
            1.0
          ],
          "specularGlossinessTexture": {
            "index": 6
          }
        }
      },
      "name": "ConcreteShader",
      "normalTexture": {
        "index": 7
      }
    },
    {
      "doubleSided": true,
      "extensions": {
        "KHR_materials_pbrSpecularGlossiness": {
          "diffuseFactor": [
            1.0,
            1.0,
            1.0,
            1.0
          ],
          "diffuseTexture": {
            "index": 8
          },
          "glossinessFactor": 1.0,
          "specularFactor": [
            1.0,
            1.0,
            1.0
          ],
          "specularGlossinessTexture": {
            "index": 9
          }
        }
      },
      "name": "WoodPlanksShader",
      "normalTexture": {
        "index": 10
      }
    },
    {
      "doubleSided": true,
      "extensions": {
        "KHR_materials_pbrSpecularGlossiness": {
          "diffuseFactor": [
            1.0,
            1.0,
            1.0,
            1.0
          ],
          "diffuseTexture": {
            "index": 11
          },
          "glossinessFactor": 1.0,
          "specularFactor": [
            1.0,
            1.0,
            1.0
          ],
          "specularGlossinessTexture": {
            "index": 12
          }
        }
      },
      "name": "BrownWoodShader",
      "normalTexture": {
        "index": 13,
        "scale": 0.4
      }
    },
    {
      "doubleSided": true,
      "extensions": {
        "KHR_materials_pbrSpecularGlossiness": {
          "diffuseFactor": [
            1.0,
            1.0,
            1.0,
            1.0
          ],
          "diffuseTexture": {
            "index": 14
          },
          "glossinessFactor": 1.0,
          "specularFactor": [
            1.0,
            1.0,
            1.0
          ],
          "specularGlossinessTexture": {
            "index": 15
          }
        }
      },
      "name": "WhiteWoodShader",
      "normalTexture": {
        "index": 16,
        "scale": 0.28
      }
    }
  ],
  "meshes": [
    {
      "name": "House_CereamicRoofingShader_0",
      "primitives": [
        {
          "attributes": {
            "COLOR_0": 3,
            "NORMAL": 1,
            "POSITION": 0,
            "TANGENT": 2,
            "TEXCOORD_0": 4
          },
          "indices": 5,
          "material": 0,
          "mode": 4
        }
      ]
    },
    {
      "name": "House_GoldShader_0",
      "primitives": [
        {
          "attributes": {
            "COLOR_0": 8,
            "NORMAL": 7,
            "POSITION": 6,
            "TEXCOORD_0": 9
          },
          "indices": 10,
          "material": 1,
          "mode": 4
        }
      ]
    },
    {
      "name": "House_FabricShader_0",
      "primitives": [
        {
          "attributes": {
            "COLOR_0": 14,
            "NORMAL": 12,
            "POSITION": 11,
            "TANGENT": 13,
            "TEXCOORD_0": 15
          },
          "indices": 16,
          "material": 2,
          "mode": 4
        }
      ]
    },
    {
      "name": "House_ConcreteShader_0",
      "primitives": [
        {
          "attributes": {
            "COLOR_0": 20,
            "NORMAL": 18,
            "POSITION": 17,
            "TANGENT": 19,
            "TEXCOORD_0": 21
          },
          "indices": 22,
          "material": 3,
          "mode": 4
        }
      ]
    },
    {
      "name": "House_WoodPlanksShader_0",
      "primitives": [
        {
          "attributes": {
            "COLOR_0": 26,
            "NORMAL": 24,
            "POSITION": 23,
            "TANGENT": 25,
            "TEXCOORD_0": 27
          },
          "indices": 28,
          "material": 4,
          "mode": 4
        }
      ]
    },
    {
      "name": "House_BrownWoodShader_0",
      "primitives": [
        {
          "attributes": {
            "COLOR_0": 32,
            "NORMAL": 30,
            "POSITION": 29,
            "TANGENT": 31,
            "TEXCOORD_0": 33
          },
          "indices": 34,
          "material": 5,
          "mode": 4
        }
      ]
    },
    {
      "name": "House_WhiteWoodShader_0",
      "primitives": [
        {
          "attributes": {
            "COLOR_0": 38,
            "NORMAL": 36,
            "POSITION": 35,
            "TANGENT": 37,
            "TEXCOORD_0": 39
          },
          "indices": 40,
          "material": 6,
          "mode": 4
        }
      ]
    }
  ],
  "nodes": [
    {
      "children": [
        1
      ],
      "matrix": [
        1.0,
        0.0,
        0.0,
        0.0,
        0.0,
        2.220446049250313e-16,
        -1.0,
        0.0,
        0.0,
        1.0,
        2.220446049250313e-16,
        0.0,
        0.0,
        0.0,
        0.0,
        1.0
      ],
      "name": "Sketchfab_model"
    },
    {
      "children": [
        2
      ],
      "matrix": [
        1.0,
        0.0,
        0.0,
        0.0,
        0.0,
        0.0,
        1.0,
        0.0,
        0.0,
        -1.0,
        0.0,
        0.0,
        0.0,
        0.0,
        0.0,
        1.0
      ],
      "name": "house.fbx"
    },
    {
      "children": [
        3
      ],
      "name": "RootNode"
    },
    {
      "children": [
        4,
        5,
        6,
        7,
        8,
        9,
        10
      ],
      "name": "House"
    },
    {
      "mesh": 0,
      "name": "House_CereamicRoofingShader_0"
    },
    {
      "mesh": 1,
      "name": "House_GoldShader_0"
    },
    {
      "mesh": 2,
      "name": "House_FabricShader_0"
    },
    {
      "mesh": 3,
      "name": "House_ConcreteShader_0"
    },
    {
      "mesh": 4,
      "name": "House_WoodPlanksShader_0"
    },
    {
      "mesh": 5,
      "name": "House_BrownWoodShader_0"
    },
    {
      "mesh": 6,
      "name": "House_WhiteWoodShader_0"
    }
  ],
  "samplers": [
    {
      "magFilter": 9729,
      "minFilter": 9987,
      "wrapS": 10497,
      "wrapT": 10497
    }
  ],
  "scene": 0,
  "scenes": [
    {
      "name": "Sketchfab_Scene",
      "nodes": [
        0
      ]
    }
  ],
  "textures": [
    {
      "sampler": 0,
      "source": 0
    },
    {
      "sampler": 0,
      "source": 1
    },
    {
      "sampler": 0,
      "source": 2
    },
    {
      "sampler": 0,
      "source": 3
    },
    {
      "sampler": 0,
      "source": 4
    },
    {
      "sampler": 0,
      "source": 5
    },
    {
      "sampler": 0,
      "source": 6
    },
    {
      "sampler": 0,
      "source": 7
    },
    {
      "sampler": 0,
      "source": 8
    },
    {
      "sampler": 0,
      "source": 9
    },
    {
      "sampler": 0,
      "source": 10
    },
    {
      "sampler": 0,
      "source": 11
    },
    {
      "sampler": 0,
      "source": 12
    },
    {
      "sampler": 0,
      "source": 13
    },
    {
      "sampler": 0,
      "source": 14
    },
    {
      "sampler": 0,
      "source": 15
    },
    {
      "sampler": 0,
      "source": 16
    }
  ]
}
