{
    "asset" : {
        "generator" : "Khronos glTF Blender I/O v3.3.35",
        "version" : "2.0"
    },
    "scene" : 0,
    "scenes" : [
        {
            "name" : "Scene",
            "nodes" : [
                0
            ]
        }
    ],
    "nodes" : [
        {
            "mesh" : 0,
            "name" : "arm3",
            "scale" : [
                0.46838241815567017,
                1.3227115869522095,
                1.3227115869522095
            ]
        }
    ],
    "materials" : [
        {
            "doubleSided" : true,
            "name" : "STeel Gold",
            "pbrMetallicRoughness" : {
                "baseColorFactor" : [
                    1,
                    0.5799999833106995,
                    0.12999999523162842,
                    1
                ],
                "metallicFactor" : 0.800000011920929,
                "roughnessFactor" : 0.20000000298023224
            }
        },
        {
            "doubleSided" : true,
            "name" : "STD white",
            "pbrMetallicRoughness" : {
                "metallicFactor" : 0,
                "roughnessFactor" : 0.5
            }
        },
        {
            "doubleSided" : true,
            "name" : "STeel White",
            "pbrMetallicRoughness" : {
                "baseColorFactor" : [
                    0.8900054693222046,
                    0.8900054693222046,
                    0.8900054693222046,
                    1
                ],
                "metallicFactor" : 0.5,
                "roughnessFactor" : 0.20000000298023224
            }
        },
        {
            "doubleSided" : true,
            "name" : "STD Black",
            "pbrMetallicRoughness" : {
                "baseColorFactor" : [
                    0.0007739944849163294,
                    0.0007739944849163294,
                    0.0007739944849163294,
                    1
                ]
            }
        }
    ],
    "meshes" : [
        {
            "name" : "Cylinder.034",
            "primitives" : [
                {
                    "attributes" : {
                        "POSITION" : 0,
                        "NORMAL" : 1,
                        "TEXCOORD_0" : 2
                    },
                    "indices" : 3,
                    "material" : 0
                },
                {
                    "attributes" : {
                        "POSITION" : 4,
                        "NORMAL" : 5,
                        "TEXCOORD_0" : 6
                    },
                    "indices" : 7,
                    "material" : 1
                },
                {
                    "attributes" : {
                        "POSITION" : 8,
                        "NORMAL" : 9,
                        "TEXCOORD_0" : 10
                    },
                    "indices" : 11,
                    "material" : 2
                },
                {
                    "attributes" : {
                        "POSITION" : 12,
                        "NORMAL" : 13,
                        "TEXCOORD_0" : 14
                    },
                    "indices" : 15,
                    "material" : 3
                }
            ]
        }
    ],
    "accessors" : [
        {
            "bufferView" : 0,
            "componentType" : 5126,
            "count" : 255,
            "max" : [
                1.6831049919128418,
                0.2766404151916504,
                0.2766392230987549
            ],
            "min" : [
                -1.6831049919128418,
                -0.2766385078430176,
                -0.276639461517334
            ],
            "type" : "VEC3"
        },
        {
            "bufferView" : 1,
            "componentType" : 5126,
            "count" : 255,
            "type" : "VEC3"
        },
        {
            "bufferView" : 2,
            "componentType" : 5126,
            "count" : 255,
            "type" : "VEC2"
        },
        {
            "bufferView" : 3,
            "componentType" : 5123,
            "count" : 468,
            "type" : "SCALAR"
        },
        {
            "bufferView" : 4,
            "componentType" : 5126,
            "count" : 2894,
            "max" : [
                2.9746382236480713,
                2.6673221588134766,
                0.6201002597808838
            ],
            "min" : [
                -2.974640130996704,
                -0.4873427152633667,
                -0.6037808060646057
            ],
            "type" : "VEC3"
        },
        {
            "bufferView" : 5,
            "componentType" : 5126,
            "count" : 2894,
            "type" : "VEC3"
        },
        {
            "bufferView" : 6,
            "componentType" : 5126,
            "count" : 2894,
            "type" : "VEC2"
        },
        {
            "bufferView" : 7,
            "componentType" : 5123,
            "count" : 7644,
            "type" : "SCALAR"
        },
        {
            "bufferView" : 8,
            "componentType" : 5126,
            "count" : 191,
            "max" : [
                3.158193826675415,
                2.4772145748138428,
                0.20914553105831146
            ],
            "min" : [
                -3.158195734024048,
                2.0589230060577393,
                -0.2091457098722458
            ],
            "type" : "VEC3"
        },
        {
            "bufferView" : 9,
            "componentType" : 5126,
            "count" : 191,
            "type" : "VEC3"
        },
        {
            "bufferView" : 10,
            "componentType" : 5126,
            "count" : 191,
            "type" : "VEC2"
        },
        {
            "bufferView" : 11,
            "componentType" : 5123,
            "count" : 468,
            "type" : "SCALAR"
        },
        {
            "bufferView" : 12,
            "componentType" : 5126,
            "count" : 32,
            "max" : [
                1.1408660411834717,
                1.2321628332138062,
                0.4039894938468933
            ],
            "min" : [
                -1.1408660411834717,
                -0.4039894938468933,
                -0.4039894938468933
            ],
            "type" : "VEC3"
        },
        {
            "bufferView" : 13,
            "componentType" : 5126,
            "count" : 32,
            "type" : "VEC3"
        },
        {
            "bufferView" : 14,
            "componentType" : 5126,
            "count" : 32,
            "type" : "VEC2"
        },
        {
            "bufferView" : 15,
            "componentType" : 5123,
            "count" : 60,
            "type" : "SCALAR"
        }
    ],
    "bufferViews" : [
        {
            "buffer" : 0,
            "byteLength" : 3060,
            "byteOffset" : 0,
            "target" : 34962
        },
        {
            "buffer" : 0,
            "byteLength" : 3060,
            "byteOffset" : 3060,
            "target" : 34962
        },
        {
            "buffer" : 0,
            "byteLength" : 2040,
            "byteOffset" : 6120,
            "target" : 34962
        },
        {
            "buffer" : 0,
            "byteLength" : 936,
            "byteOffset" : 8160,
            "target" : 34963
        },
        {
            "buffer" : 0,
            "byteLength" : 34728,
            "byteOffset" : 9096,
            "target" : 34962
        },
        {
            "buffer" : 0,
            "byteLength" : 34728,
            "byteOffset" : 43824,
            "target" : 34962
        },
        {
            "buffer" : 0,
            "byteLength" : 23152,
            "byteOffset" : 78552,
            "target" : 34962
        },
        {
            "buffer" : 0,
            "byteLength" : 15288,
            "byteOffset" : 101704,
            "target" : 34963
        },
        {
            "buffer" : 0,
            "byteLength" : 2292,
            "byteOffset" : 116992,
            "target" : 34962
        },
        {
            "buffer" : 0,
            "byteLength" : 2292,
            "byteOffset" : 119284,
            "target" : 34962
        },
        {
            "buffer" : 0,
            "byteLength" : 1528,
            "byteOffset" : 121576,
            "target" : 34962
        },
        {
            "buffer" : 0,
            "byteLength" : 936,
            "byteOffset" : 123104,
            "target" : 34963
        },
        {
            "buffer" : 0,
            "byteLength" : 384,
            "byteOffset" : 124040,
            "target" : 34962
        },
        {
            "buffer" : 0,
            "byteLength" : 384,
            "byteOffset" : 124424,
            "target" : 34962
        },
        {
            "buffer" : 0,
            "byteLength" : 256,
            "byteOffset" : 124808,
            "target" : 34962
        },
        {
            "buffer" : 0,
            "byteLength" : 120,
            "byteOffset" : 125064,
            "target" : 34963
        }
    ],
    "buffers" : [
        {
            "byteLength" : 125184,
            "uri" : "data:application/octet-stream;base64,"
        }
    ]
}
