{
    "asset" : {
        "generator" : "Khronos glTF Blender I/O v3.3.32",
        "version" : "2.0"
    },
    "scene" : 0,
    "scenes" : [
        {
            "name" : "Scene",
            "nodes" : [
                0
            ]
        }
    ],
    "nodes" : [
        {
            "mesh" : 0,
            "name" : "11L",
            "rotation" : [
                0.7071068286895752,
                0,
                0,
                0.7071067094802856
            ]
        }
    ],
    "materials" : [
        {
            "doubleSided" : true,
            "name" : "STeel Black",
            "pbrMetallicRoughness" : {
                "baseColorFactor" : [
                    0.20000000298023224,
                    0.20000000298023224,
                    0.20000000298023224,
                    1
                ],
                "metallicFactor" : 0.6000000238418579,
                "roughnessFactor" : 0
            }
        },
        {
            "doubleSided" : true,
            "name" : "STeel White",
            "pbrMetallicRoughness" : {
                "baseColorFactor" : [
                    0.8900054693222046,
                    0.8900054693222046,
                    0.8900054693222046,
                    1
                ],
                "metallicFactor" : 0.5,
                "roughnessFactor" : 0.20000000298023224
            }
        }
    ],
    "meshes" : [
        {
            "name" : "??--?2.006",
            "primitives" : [
                {
                    "attributes" : {
                        "POSITION" : 0,
                        "NORMAL" : 1,
                        "TEXCOORD_0" : 2
                    },
                    "indices" : 3,
                    "material" : 0
                },
                {
                    "attributes" : {
                        "POSITION" : 4,
                        "NORMAL" : 5,
                        "TEXCOORD_0" : 6
                    },
                    "indices" : 7,
                    "material" : 1
                }
            ]
        }
    ],
    "accessors" : [
        {
            "bufferView" : 0,
            "componentType" : 5126,
            "count" : 2734,
            "max" : [
                0.43227267265319824,
                0.15302042663097382,
                0.43227142095565796
            ],
            "min" : [
                -0.4174531102180481,
                0.07026307284832001,
                -1.3097463846206665
            ],
            "type" : "VEC3"
        },
        {
            "bufferView" : 1,
            "componentType" : 5126,
            "count" : 2734,
            "type" : "VEC3"
        },
        {
            "bufferView" : 2,
            "componentType" : 5126,
            "count" : 2734,
            "type" : "VEC2"
        },
        {
            "bufferView" : 3,
            "componentType" : 5123,
            "count" : 8142,
            "type" : "SCALAR"
        },
        {
            "bufferView" : 4,
            "componentType" : 5126,
            "count" : 240,
            "max" : [
                0.2504202425479889,
                0.23165816068649292,
                0.25145068764686584
            ],
            "min" : [
                -0.2516484558582306,
                -0.5123709440231323,
                -0.25109949707984924
            ],
            "type" : "VEC3"
        },
        {
            "bufferView" : 5,
            "componentType" : 5126,
            "count" : 240,
            "type" : "VEC3"
        },
        {
            "bufferView" : 6,
            "componentType" : 5126,
            "count" : 240,
            "type" : "VEC2"
        },
        {
            "bufferView" : 7,
            "componentType" : 5123,
            "count" : 420,
            "type" : "SCALAR"
        }
    ],
    "bufferViews" : [
        {
            "buffer" : 0,
            "byteLength" : 32808,
            "byteOffset" : 0,
            "target" : 34962
        },
        {
            "buffer" : 0,
            "byteLength" : 32808,
            "byteOffset" : 32808,
            "target" : 34962
        },
        {
            "buffer" : 0,
            "byteLength" : 21872,
            "byteOffset" : 65616,
            "target" : 34962
        },
        {
            "buffer" : 0,
            "byteLength" : 16284,
            "byteOffset" : 87488,
            "target" : 34963
        },
        {
            "buffer" : 0,
            "byteLength" : 2880,
            "byteOffset" : 103772,
            "target" : 34962
        },
        {
            "buffer" : 0,
            "byteLength" : 2880,
            "byteOffset" : 106652,
            "target" : 34962
        },
        {
            "buffer" : 0,
            "byteLength" : 1920,
            "byteOffset" : 109532,
            "target" : 34962
        },
        {
            "buffer" : 0,
            "byteLength" : 840,
            "byteOffset" : 111452,
            "target" : 34963
        }
    ],
    "buffers" : [
        {
            "byteLength" : 112292,
            "uri" : "data:application/octet-stream;base64,"
        }
    ]
}
