{
    "asset" : {
        "generator" : "Khronos glTF Blender I/O v3.3.32",
        "version" : "2.0"
    },
    "scene" : 0,
    "scenes" : [
        {
            "name" : "Scene",
            "nodes" : [
                0
            ]
        }
    ],
    "nodes" : [
        {
            "mesh" : 0,
            "name" : "21L",
            "rotation" : [
                0,
                -0.7071067094802856,
                -0.7071068286895752,
                6.181723222198343e-08
            ],
            "scale" : [
                -0.05929425731301308,
                -0.13811905682086945,
                -0.05929425731301308
            ]
        }
    ],
    "materials" : [
        {
            "doubleSided" : true,
            "name" : "STeel White",
            "pbrMetallicRoughness" : {
                "baseColorFactor" : [
                    0.8900054693222046,
                    0.8900054693222046,
                    0.8900054693222046,
                    1
                ],
                "metallicFactor" : 0.5,
                "roughnessFactor" : 0.20000000298023224
            }
        },
        {
            "doubleSided" : true,
            "name" : "STeel Black",
            "pbrMetallicRoughness" : {
                "baseColorFactor" : [
                    0.20000000298023224,
                    0.20000000298023224,
                    0.20000000298023224,
                    1
                ],
                "metallicFactor" : 0.6000000238418579,
                "roughnessFactor" : 0
            }
        }
    ],
    "meshes" : [
        {
            "name" : "Cylinder.045",
            "primitives" : [
                {
                    "attributes" : {
                        "POSITION" : 0,
                        "NORMAL" : 1,
                        "TEXCOORD_0" : 2
                    },
                    "indices" : 3,
                    "material" : 0
                },
                {
                    "attributes" : {
                        "POSITION" : 4,
                        "NORMAL" : 5,
                        "TEXCOORD_0" : 6
                    },
                    "indices" : 7,
                    "material" : 1
                }
            ]
        }
    ],
    "accessors" : [
        {
            "bufferView" : 0,
            "componentType" : 5126,
            "count" : 96,
            "max" : [
                3.94964599609375,
                0.6379934549331665,
                1
            ],
            "min" : [
                -1,
                -1.3620065450668335,
                -11.211448669433594
            ],
            "type" : "VEC3"
        },
        {
            "bufferView" : 1,
            "componentType" : 5126,
            "count" : 96,
            "type" : "VEC3"
        },
        {
            "bufferView" : 2,
            "componentType" : 5126,
            "count" : 96,
            "type" : "VEC2"
        },
        {
            "bufferView" : 3,
            "componentType" : 5123,
            "count" : 168,
            "type" : "SCALAR"
        },
        {
            "bufferView" : 4,
            "componentType" : 5126,
            "count" : 894,
            "max" : [
                10.763326644897461,
                0.3790663778781891,
                2.655216693878174
            ],
            "min" : [
                -2.652902603149414,
                -0.5078155398368835,
                -29.41153335571289
            ],
            "type" : "VEC3"
        },
        {
            "bufferView" : 5,
            "componentType" : 5126,
            "count" : 894,
            "type" : "VEC3"
        },
        {
            "bufferView" : 6,
            "componentType" : 5126,
            "count" : 894,
            "type" : "VEC2"
        },
        {
            "bufferView" : 7,
            "componentType" : 5123,
            "count" : 2640,
            "type" : "SCALAR"
        }
    ],
    "bufferViews" : [
        {
            "buffer" : 0,
            "byteLength" : 1152,
            "byteOffset" : 0,
            "target" : 34962
        },
        {
            "buffer" : 0,
            "byteLength" : 1152,
            "byteOffset" : 1152,
            "target" : 34962
        },
        {
            "buffer" : 0,
            "byteLength" : 768,
            "byteOffset" : 2304,
            "target" : 34962
        },
        {
            "buffer" : 0,
            "byteLength" : 336,
            "byteOffset" : 3072,
            "target" : 34963
        },
        {
            "buffer" : 0,
            "byteLength" : 10728,
            "byteOffset" : 3408,
            "target" : 34962
        },
        {
            "buffer" : 0,
            "byteLength" : 10728,
            "byteOffset" : 14136,
            "target" : 34962
        },
        {
            "buffer" : 0,
            "byteLength" : 7152,
            "byteOffset" : 24864,
            "target" : 34962
        },
        {
            "buffer" : 0,
            "byteLength" : 5280,
            "byteOffset" : 32016,
            "target" : 34963
        }
    ],
    "buffers" : [
        {
            "byteLength" : 37296,
            "uri" : "data:application/octet-stream;base64,"
        }
    ]
}
